<?xml version="1.0" encoding="utf-8"?>
<!-- Generator: Adobe Illustrator 16.0.1, SVG Export Plug-In . SVG Version: 6.00 Build 0)  -->
<!DOCTYPE svg PUBLIC "-//W3C//DTD SVG 1.1//EN" "http://www.w3.org/Graphics/SVG/1.1/DTD/svg11.dtd">
<svg version="1.1" id="Layer_1" xmlns="http://www.w3.org/2000/svg" xmlns:xlink="http://www.w3.org/1999/xlink" x="0px" y="0px"
	 width="800px" height="297.16px" viewBox="0 0 800 297.16" style="enable-background:new 0 0 800 297.16;" xml:space="preserve">
<style type="text/css">
<![CDATA[
	.st0{fill:#FFFFFF;}
	.st1{fill:#CC3227;}
]]>
</style>
<g>
	<polygon class="st1" points="800,208.42 400.06,297.16 0,208.42 0,0 800,0 	"/>
	<g>
		<path class="st0" d="M123.18,141.49c0,0-8.67,5.62-22.28,5.62c-22.66,0-37.7-14.85-37.7-34.66c0-19.33,16.28-34.56,36.08-34.56
			c14.66,0,23.61,5.43,23.61,5.43l-4.09,10.09c0,0-8.86-4.38-17.52-4.38c-15.71,0-25.33,9.9-25.33,23.61
			c0,13.42,10.28,23.33,24.18,23.33c11.33,0,19.42-4.57,19.42-4.57L123.18,141.49z"/>
		<path class="st0" d="M180.49,119.6h-32.66v26.37h-11.81V79.04h11.81v30.09h32.66V79.13h11.81v66.84h-11.81V119.6z"/>
		<path class="st0" d="M207.91,79.04h21.42c17.8,0,26.75,9.81,26.75,23.8c0,9.24-3.81,16.57-12.19,20.47l17.14,22.66h-13.81
			l-14.19-19.71c-1.9,0.19-3.9,0.29-6,0.29h-7.33v19.42h-11.81V79.04z M219.72,89.89v26.18h8.76c11.04,0,14.85-5.9,14.85-13.23
			c0-7.33-3.71-12.95-14.85-12.95H219.72z"/>
		<path class="st0" d="M272.56,79.04h11.81v66.93h-11.81V79.04z"/>
		<path class="st0" d="M320.54,147.11c-7.9,0-15.8-2.67-21.9-6.38l4.09-10.66c5.52,3.71,12.19,6,18.19,6c7.9,0,11.52-3.9,11.52-8.19
			c0-4.47-2.48-7.14-14.57-11.62c-13.04-4.76-17.52-10.95-17.52-18.95c0-10.09,8.19-19.42,22.47-19.42c7.14,0,14.19,2.1,18.47,4.57
			l-3.81,10.47c-3.9-2.19-9.81-4.48-14.95-4.48c-7.05,0-10.28,3.9-10.28,8.57c0,4.29,3.62,6.95,13.04,10.38
			c14.95,5.81,19.23,11.71,19.23,20.47C344.54,139.78,335.49,147.11,320.54,147.11z"/>
		<path class="st0" d="M456.5,145.97h-11.62l-0.29-38.46l-20.66,39.04h-4.09L399,108.17l-0.19,37.8h-11.52l1.9-67.22h5.24
			l27.8,48.75l27.13-48.75h5.24L456.5,145.97z"/>
		<path class="st0" d="M477.93,145.97h-12.38l31.42-67.5h2.67l31.42,67.5h-12.66l-5.9-13.33h-28.75L477.93,145.97z M487.92,123.21
			h20.37l-10.19-23.04L487.92,123.21z"/>
		<path class="st0" d="M540.58,78.65h3.71l41.42,43.13V79.04h11.81v67.41h-3.14l-41.99-41.99v41.51h-11.81V78.65z"/>
		<path class="st0" d="M607.32,79.04h56.27v10.85h-22v56.08h-11.9V89.89h-22.38V79.04z"/>
		<path class="st0" d="M674.92,79.04h11.81v66.93h-11.81V79.04z"/>
		<path class="st0" d="M702.81,79.04h11.81v56.08h31.71v10.85h-43.51V79.04z"/>
	</g>
</g>
<g>
</g>
<g>
</g>
<g>
</g>
<g>
</g>
<g>
</g>
<g>
</g>
<g>
</g>
<g>
</g>
<g>
</g>
<g>
</g>
<g>
</g>
<g>
</g>
<g>
</g>
<g>
</g>
<g>
</g>
</svg>
