<?xml version="1.0" encoding="utf-8"?>
<!-- Generator: Adobe Illustrator 16.0.1, SVG Export Plug-In . SVG Version: 6.00 Build 0)  -->
<!DOCTYPE svg PUBLIC "-//W3C//DTD SVG 1.1//EN" "http://www.w3.org/Graphics/SVG/1.1/DTD/svg11.dtd">
<svg version="1.1" id="Layer_1" xmlns="http://www.w3.org/2000/svg" xmlns:xlink="http://www.w3.org/1999/xlink" x="0px" y="0px"
	 width="302px" height="109px" viewBox="0 0 302 109" style="enable-background:new 0 0 302 109;" xml:space="preserve">
<style type="text/css">
<![CDATA[
	.st0{fill:#FFFFFF;}
	.st1{fill:#CC3227;}
]]>
</style>
<g>
	<path class="st0" d="M297.97,3.77v75.99l-146.95,25.47l-147-25.47V3.77H297.97 M297.97,0.21H4.03c-1.97,0-3.56,1.6-3.56,3.56v75.99
		c0,1.73,1.25,3.22,2.96,3.51l147,25.47c0.2,0.04,0.41,0.05,0.61,0.05c0.2,0,0.41-0.02,0.61-0.05l146.95-25.47
		c1.71-0.3,2.96-1.78,2.96-3.51V3.77C301.54,1.8,299.94,0.21,297.97,0.21L297.97,0.21z"/>
	<g>
		<path class="st0" d="M49.18,57.35c0,0-3.18,2.06-8.19,2.06c-8.33,0-13.85-5.46-13.85-12.73c0-7.1,5.98-12.7,13.26-12.7
			c5.39,0,8.68,1.99,8.68,1.99l-1.5,3.71c0,0-3.25-1.61-6.44-1.61c-5.77,0-9.3,3.64-9.3,8.68c0,4.93,3.78,8.57,8.88,8.57
			c4.17,0,7.14-1.68,7.14-1.68L49.18,57.35z"/>
		<path class="st0" d="M70.24,49.3h-12v9.69H53.9V34.4h4.34v11.05h12V34.43h4.34v24.56h-4.34V49.3z"/>
		<path class="st0" d="M80.45,34.4h7.87c6.54,0,9.83,3.6,9.83,8.75c0,3.4-1.4,6.09-4.48,7.52l6.3,8.33H94.9l-5.21-7.24
			c-0.7,0.07-1.43,0.1-2.2,0.1h-2.69v7.14h-4.34V34.4z M84.79,38.39v9.62h3.22c4.06,0,5.46-2.17,5.46-4.86
			c0-2.69-1.37-4.76-5.46-4.76H84.79z"/>
		<path class="st0" d="M104.21,34.4h4.34v24.59h-4.34V34.4z"/>
		<path class="st0" d="M121.49,59.41c-2.9,0-5.81-0.98-8.04-2.34l1.5-3.92c2.03,1.36,4.48,2.2,6.68,2.2c2.9,0,4.23-1.43,4.23-3.01
			c0-1.64-0.91-2.62-5.35-4.27c-4.79-1.75-6.44-4.02-6.44-6.96c0-3.71,3.01-7.14,8.25-7.14c2.62,0,5.21,0.77,6.79,1.68l-1.4,3.85
			c-1.43-0.8-3.6-1.64-5.49-1.64c-2.59,0-3.78,1.43-3.78,3.15c0,1.57,1.33,2.55,4.79,3.81c5.49,2.13,7.07,4.3,7.07,7.52
			C130.31,56.72,126.98,59.41,121.49,59.41z"/>
		<path class="st0" d="M171.45,58.99h-4.27l-0.11-14.13l-7.59,14.34h-1.5l-7.66-14.1l-0.07,13.89h-4.23l0.7-24.7h1.92l10.21,17.91
			l9.97-17.91h1.92L171.45,58.99z"/>
		<path class="st0" d="M179.32,58.99h-4.55l11.55-24.8h0.98l11.55,24.8h-4.65l-2.17-4.9h-10.56L179.32,58.99z M182.99,50.63h7.49
			l-3.74-8.47L182.99,50.63z"/>
		<path class="st0" d="M202.51,34.26h1.36L219.1,50.1V34.4h4.34v24.77h-1.15l-15.43-15.43v15.25h-4.34V34.26z"/>
		<path class="st0" d="M227.04,34.4h20.68v3.99h-8.08v20.6h-4.37v-20.6h-8.22V34.4z"/>
		<path class="st0" d="M251.32,34.4h4.34v24.59h-4.34V34.4z"/>
		<path class="st0" d="M262.37,34.4h4.34V55h11.65v3.99h-15.99V34.4z"/>
	</g>
</g>
<rect x="-550" y="1260.41" class="st1" width="892" height="330.18"/>
<g>
	<path class="st0" d="M60.55,1378.71v85.07l-164.53,28.52l-164.57-28.52v-85.07H60.55 M60.55,1374.72h-329.1
		c-2.2,0-3.99,1.79-3.99,3.99v85.07c0,1.94,1.4,3.6,3.31,3.93l164.57,28.52c0.23,0.04,0.45,0.06,0.68,0.06s0.46-0.02,0.68-0.06
		l164.53-28.52c1.91-0.33,3.31-1.99,3.31-3.93v-85.07C64.54,1376.51,62.76,1374.72,60.55,1374.72L60.55,1374.72z"/>
	<g>
		<path class="st0" d="M-218,1438.7c0,0-3.56,2.31-9.17,2.31c-9.32,0-15.51-6.11-15.51-14.26c0-7.95,6.7-14.22,14.84-14.22
			c6.03,0,9.71,2.23,9.71,2.23l-1.68,4.15c0,0-3.64-1.8-7.21-1.8c-6.46,0-10.42,4.07-10.42,9.71c0,5.52,4.23,9.6,9.95,9.6
			c4.66,0,7.99-1.88,7.99-1.88L-218,1438.7z"/>
		<path class="st0" d="M-194.42,1429.69h-13.43v10.85h-4.86V1413h4.86v12.38h13.43v-12.34h4.86v27.49h-4.86V1429.69z"/>
		<path class="st0" d="M-182.98,1413h8.81c7.32,0,11.01,4.04,11.01,9.79c0,3.8-1.57,6.82-5.01,8.42l7.05,9.32h-5.68l-5.83-8.11
			c-0.78,0.08-1.61,0.12-2.47,0.12h-3.02v7.99h-4.86V1413z M-178.12,1417.47v10.77h3.6c4.54,0,6.11-2.43,6.11-5.45
			s-1.53-5.33-6.11-5.33H-178.12z"/>
		<path class="st0" d="M-156.39,1413h4.86v27.53h-4.86V1413z"/>
		<path class="st0" d="M-137.04,1441.01c-3.25,0-6.5-1.1-9.01-2.62l1.69-4.38c2.27,1.53,5.01,2.47,7.48,2.47
			c3.25,0,4.74-1.61,4.74-3.37c0-1.84-1.02-2.94-5.99-4.78c-5.37-1.96-7.21-4.5-7.21-7.79c0-4.15,3.37-7.99,9.24-7.99
			c2.94,0,5.84,0.86,7.6,1.88l-1.57,4.31c-1.61-0.9-4.03-1.84-6.15-1.84c-2.9,0-4.23,1.61-4.23,3.52c0,1.76,1.49,2.86,5.37,4.27
			c6.15,2.39,7.91,4.82,7.91,8.42C-127.17,1437.99-130.89,1441.01-137.04,1441.01z"/>
		<path class="st0" d="M-81.11,1440.54h-4.78l-0.12-15.82l-8.5,16.06h-1.68l-8.58-15.78l-0.08,15.55h-4.74l0.78-27.65h2.16
			l11.44,20.05l11.16-20.05h2.15L-81.11,1440.54z"/>
		<path class="st0" d="M-72.29,1440.54h-5.09l12.93-27.77h1.09l12.93,27.77h-5.21l-2.43-5.48h-11.83L-72.29,1440.54z
			 M-68.18,1431.18h8.38l-4.19-9.48L-68.18,1431.18z"/>
		<path class="st0" d="M-46.33,1412.85h1.53l17.04,17.74V1413h4.86v27.73h-1.29l-17.27-17.27v17.08h-4.86V1412.85z"/>
		<path class="st0" d="M-18.87,1413H4.28v4.47h-9.05v23.07h-4.9v-23.07h-9.2V1413z"/>
		<path class="st0" d="M8.31,1413h4.86v27.53H8.31V1413z"/>
		<path class="st0" d="M20.69,1413h4.86v23.07h13.04v4.46h-17.9V1413z"/>
	</g>
</g>
<g>
</g>
<g>
</g>
<g>
</g>
<g>
</g>
<g>
</g>
<g>
</g>
<g>
</g>
<g>
</g>
<g>
</g>
<g>
</g>
<g>
</g>
<g>
</g>
<g>
</g>
<g>
</g>
<g>
</g>
</svg>
