<?xml version="1.0" encoding="utf-8"?>
<!-- Generator: Adobe Illustrator 16.0.1, SVG Export Plug-In . SVG Version: 6.00 Build 0)  -->
<!DOCTYPE svg PUBLIC "-//W3C//DTD SVG 1.1//EN" "http://www.w3.org/Graphics/SVG/1.1/DTD/svg11.dtd">
<svg version="1.1" xmlns="http://www.w3.org/2000/svg" xmlns:xlink="http://www.w3.org/1999/xlink" x="0px" y="0px" width="514.5px"
	 height="184.95px" viewBox="0 0 514.5 184.95" style="enable-background:new 0 0 514.5 184.95;" xml:space="preserve">
<style type="text/css">
<![CDATA[
	.st0{fill:#231F20;}
]]>
</style>
<g id="Layer_3">
	<g>
		<g>
			<path class="st0" d="M88.46,89.04c0,0-5.32,3.45-13.68,3.45c-13.91,0-23.14-9.12-23.14-21.27C51.64,59.35,61.63,50,73.79,50
				c9,0,14.49,3.33,14.49,3.33l-2.51,6.19c0,0-5.44-2.69-10.75-2.69c-9.64,0-15.55,6.08-15.55,14.49c0,8.24,6.31,14.32,14.84,14.32
				c6.95,0,11.92-2.8,11.92-2.8L88.46,89.04z"/>
			<path class="st0" d="M123.64,75.6h-20.04v16.19h-7.25V50.7h7.25v18.47h20.04V50.76h7.25v41.03h-7.25V75.6z"/>
			<path class="st0" d="M140.46,50.7h13.15c10.93,0,16.42,6.02,16.42,14.61c0,5.67-2.34,10.17-7.48,12.56l10.52,13.91h-8.47
				l-8.71-12.1c-1.17,0.12-2.4,0.18-3.68,0.18h-4.5v11.92h-7.25V50.7z M147.71,57.36v16.07h5.38c6.78,0,9.12-3.62,9.12-8.12
				s-2.28-7.95-9.12-7.95H147.71z"/>
			<path class="st0" d="M179.62,50.7h7.25v41.08h-7.25V50.7z"/>
			<path class="st0" d="M209.07,92.49c-4.85,0-9.7-1.64-13.44-3.92l2.51-6.55c3.39,2.28,7.48,3.68,11.16,3.68
				c4.85,0,7.07-2.4,7.07-5.03c0-2.75-1.52-4.38-8.94-7.13c-8.01-2.92-10.75-6.72-10.75-11.63c0-6.19,5.03-11.92,13.79-11.92
				c4.38,0,8.71,1.29,11.34,2.81l-2.34,6.43c-2.4-1.34-6.02-2.75-9.18-2.75c-4.32,0-6.31,2.4-6.31,5.26c0,2.63,2.22,4.27,8.01,6.37
				c9.18,3.56,11.81,7.19,11.81,12.56C223.8,87.99,218.25,92.49,209.07,92.49z"/>
			<path class="st0" d="M292.52,91.79h-7.13l-0.18-23.61l-12.68,23.96h-2.51l-12.8-23.55l-0.12,23.2h-7.07l1.17-41.26h3.21
				l17.06,29.92l16.66-29.92h3.21L292.52,91.79z"/>
			<path class="st0" d="M305.67,91.79h-7.6l19.29-41.43h1.64l19.29,41.43h-7.77l-3.62-8.18h-17.65L305.67,91.79z M311.8,77.82h12.51
				l-6.25-14.14L311.8,77.82z"/>
			<path class="st0" d="M344.12,50.47h2.28l25.42,26.47V50.7h7.25v41.38h-1.93l-25.77-25.77v25.48h-7.25V50.47z"/>
			<path class="st0" d="M385.08,50.7h34.54v6.66h-13.5v34.42h-7.31V57.36h-13.73V50.7z"/>
			<path class="st0" d="M426.05,50.7h7.25v41.08h-7.25V50.7z"/>
			<path class="st0" d="M442,50.7h7.25v34.42h19.46v6.66H442V50.7z"/>
		</g>
		<g>
			<path class="st0" d="M183.83,136.51c-2.47,0-4.93-0.83-6.84-1.99l1.28-3.33c1.72,1.16,3.8,1.87,5.68,1.87
				c2.47,0,3.6-1.22,3.6-2.56c0-1.4-0.77-2.23-4.55-3.63c-4.07-1.49-5.47-3.42-5.47-5.92c0-3.15,2.56-6.06,7.01-6.06
				c2.23,0,4.43,0.65,5.77,1.43l-1.19,3.27c-1.22-0.68-3.06-1.4-4.67-1.4c-2.2,0-3.21,1.22-3.21,2.67c0,1.34,1.13,2.17,4.07,3.24
				c4.67,1.81,6,3.66,6,6.39C191.32,134.22,188.5,136.51,183.83,136.51z"/>
			<path class="st0" d="M195.45,115.25h3.69v20.9h-3.69V115.25z"/>
			<path class="st0" d="M204.84,115.14H206l12.93,13.46v-13.35h3.69v21.04h-0.98l-13.11-13.11v12.96h-3.69V115.14z"/>
			<path class="st0" d="M245.68,134.75c0,0-2.71,1.75-6.96,1.75c-7.07,0-11.77-4.64-11.77-10.82c0-6.03,5.08-10.79,11.27-10.79
				c4.58,0,7.37,1.69,7.37,1.69l-1.28,3.15c0,0-2.76-1.37-5.47-1.37c-4.9,0-7.91,3.09-7.91,7.37c0,4.19,3.21,7.28,7.55,7.28
				c3.54,0,6.06-1.43,6.06-1.43L245.68,134.75z"/>
			<path class="st0" d="M249.69,115.25h13.58v3.39h-9.9v5.86h8.98v3.27h-8.98v4.99h9.9v3.39h-13.58V115.25z"/>
			<path class="st0" d="M280.96,136.15v-16.23l-4.4,1.69l-1.25-3.12l8.44-3.24h0.89v20.9H280.96z"/>
			<path class="st0" d="M291.06,133.77c4.4-2.02,7.49-4.79,8.23-7.07c-0.62,0.86-2.11,1.99-4.16,1.99c-3.89,0-6.42-2.35-6.42-6.78
				c0-3.92,2.73-7.04,7.61-7.04c4.4,0,7.49,3.09,7.49,7.94c0,7.1-4.4,10.64-10.67,14.21L291.06,133.77z M296.26,118.17
				c-1.96,0-3.57,1.28-3.57,3.75c0,2.47,1.61,3.78,3.57,3.78s3.54-1.34,3.54-3.78C299.8,119.48,298.22,118.17,296.26,118.17z"/>
			<path class="st0" d="M306.99,129.91c0-2.41,1.43-4.25,3.36-4.93c-1.64-0.74-2.77-2.41-2.77-4.19c0-3.89,3.15-5.89,6.99-5.89
				c3.83,0,6.98,1.99,6.98,5.89c0,1.78-1.13,3.45-2.76,4.19c1.9,0.71,3.36,2.53,3.36,4.93c0,3.66-2.97,6.6-7.58,6.6
				C309.96,136.51,306.99,133.56,306.99,129.91z M318.17,129.91c0-2.11-1.63-3.18-3.6-3.18c-1.96,0-3.6,1.07-3.6,3.18
				c0,2.2,1.63,3.3,3.6,3.3C316.53,133.21,318.17,132.11,318.17,129.91z M317.57,120.78c0-1.93-1.4-2.88-3-2.88
				c-1.61,0-3,0.95-3,2.88c0,1.93,1.4,2.85,3,2.85C316.17,123.64,317.57,122.71,317.57,120.78z"/>
			<path class="st0" d="M327.38,133.77c4.4-2.02,7.49-4.79,8.23-7.07c-0.62,0.86-2.11,1.99-4.16,1.99c-3.89,0-6.42-2.35-6.42-6.78
				c0-3.92,2.73-7.04,7.61-7.04c4.4,0,7.49,3.09,7.49,7.94c0,7.1-4.4,10.64-10.67,14.21L327.38,133.77z M332.58,118.17
				c-1.96,0-3.57,1.28-3.57,3.75c0,2.47,1.6,3.78,3.57,3.78c1.96,0,3.54-1.34,3.54-3.78C336.12,119.48,334.54,118.17,332.58,118.17z
				"/>
		</g>
		<path class="st0" d="M505.5,9v115.54l-247.94,51.21L9,124.54V9H505.5 M514.5,0h-9H9H0v9v115.54v7.33l7.18,1.48l248.56,51.21
			l1.82,0.38l1.82-0.38l247.94-51.21l7.18-1.48v-7.33V9V0L514.5,0z"/>
	</g>
</g>
<g id="Layer_1">
	<g>
	</g>
</g>
<g id="Layer_2">
	<g>
	</g>
	<g>
	</g>
	<g>
	</g>
	<g>
	</g>
	<g>
	</g>
	<g>
	</g>
	<g>
	</g>
</g>
</svg>
