<?xml version="1.0" encoding="utf-8"?>
<!-- Generator: Adobe Illustrator 16.0.1, SVG Export Plug-In . SVG Version: 6.00 Build 0)  -->
<!DOCTYPE svg PUBLIC "-//W3C//DTD SVG 1.1//EN" "http://www.w3.org/Graphics/SVG/1.1/DTD/svg11.dtd">
<svg version="1.1" id="Layer_1" xmlns="http://www.w3.org/2000/svg" xmlns:xlink="http://www.w3.org/1999/xlink" x="0px" y="0px"
	 width="100px" height="90.25px" viewBox="0 0 100 90.25" style="enable-background:new 0 0 100 90.25;" xml:space="preserve">
<style type="text/css">
<![CDATA[
	.st0{fill:#D8D8D8;}
]]>
</style>
<g>
	<path class="st0" d="M0,2c0-1.1,0.9-2,2-2h96c1.1,0,2,0.9,2,2v16c0,1.1-0.9,2-2,2H2c-1.1,0-2-0.9-2-2V2z"/>
	<path class="st0" d="M0,2c0-1.1,0.9-2,2-2h96c1.1,0,2,0.9,2,2v16c0,1.1-0.9,2-2,2H2c-1.1,0-2-0.9-2-2V2z"/>
</g>
<g>
	<path class="st0" d="M0,72.25c0-1.1,0.9-2,2-2h96c1.1,0,2,0.9,2,2v16c0,1.1-0.9,2-2,2H2c-1.1,0-2-0.9-2-2V72.25z"/>
</g>
<g>
	<path class="st0" d="M0,37.12c0-1.1,0.9-2,2-2h96c1.1,0,2,0.9,2,2v16c0,1.1-0.9,2-2,2H2c-1.1,0-2-0.9-2-2V37.12z"/>
</g>
</svg>
